<svg width="64" height="64" xmlns="http://www.w3.org/2000/svg"
  viewBox="171.99843750000002 -3.0999999999999943 156.00312499999998 156.2" style="background: none;"
  preserveAspectRatio="xMidYMid">
  <defs>
    <linearGradient id="editing-outline-gradient" x1="-0.41354545764260087" x2="1.4135454576426008"
      y1="0.09326335692419985" y2="0.9067366430758002">
      <stop offset="0" stop-color="#ee4208"></stop>
      <stop offset="1" stop-color="#4139ff"></stop>
    </linearGradient>
    <filter id="editing-outline" x="-100%" y="-100%" width="300%" height="300%">
      <feMorphology in="SourceGraphic" operator="dilate" radius="5" result="outline"></feMorphology>
      <feComposite operator="out" in="outline" in2="SourceAlpha"></feComposite>
    </filter>
  </defs>
  <g filter="url(#editing-outline)">
    <g transform="translate(206.25000381469727, 118.75)">
      <path
        d="M25-12.50L12.50-12.50L12.50-25L0-25L0-100L25-100L25-50L37.50-50L37.50-100L50-100L50-50L62.50-50L62.50-100L87.50-100L87.50-25L75-25L75-12.50L62.50-12.50L62.50-25L50-25L50-37.50L37.50-37.50L37.50-25L25-25L25-12.50Z"
        fill="url(#editing-outline-gradient)"></path>
    </g>
  </g>
  <style>
    text {
      font-size: 64;
      font-family: Arial Black;
      dominant-baseline: central;
      text-anchor: middle;
    }
  </style>
</svg>